# xmcd CD database file
#
# Track frame offsets:
#	150
#	18338
#	37237
#	53168
#	91888
#	115183
#	150711
#	156562
#	167134
#	185931
#	207823
#	225889
#	245005
#	263700
#
# Disc length: 3633 seconds
#
# Revision: 0
# Processed by: cddbd v1.5.2PL0 Copyright (c) Steve Scherf et al.
# Submitted via: CDex 1.76
#
DISCID=bb0e2f0e
DTITLE=Visionssuche 2012 - Visionssuche 2012 CD 1
DYEAR=2012
DGENRE=New Age
TTITLE0=Sonnentanz
TTITLE1=Blessing
TTITLE2=Tango
TTITLE3=Well Balanced Tanz
TTITLE4=Komm in den Kreis
TTITLE5=There is sunshine in the morning
TTITLE6=Good Morning
TTITLE7=Ich leg mein Leben in deine Hand
TTITLE8=Deeply connect
TTITLE9=Ich bin wieder hier, an deisem Ort
TTITLE10=Dein Reichtum komme
TTITLE11=Erde, halte mich
TTITLE12=Danke, Mutter Erde
TTITLE13=Return
EXTD=YEAR: 2012
EXTT0=
EXTT1=
EXTT2=
EXTT3=
EXTT4=
EXTT5=
EXTT6=
EXTT7=
EXTT8=
EXTT9=
EXTT10=
EXTT11=
EXTT12=
EXTT13=
PLAYORDER=
